<svg width="360" height="703" viewBox="0 0 360 703" fill="none" xmlns="http://www.w3.org/2000/svg">
<path d="M258.31 291.714L257.288 282.605L258.464 281.926L265.841 287.365L264.5 288.14L262.761 286.819L259.346 288.791L259.61 290.963L258.31 291.714ZM259.161 287.398L261.647 285.962L258.731 283.794L259.161 287.398ZM268.465 285.919L261.263 280.379L262.666 279.569L268.048 283.862L267.01 277.061L268.382 276.269L269.579 285.276L268.465 285.919ZM273.79 282.776L269.62 275.554L274.975 272.462L275.63 273.597L271.545 275.956L272.629 277.834L276.25 275.743L276.905 276.878L273.284 278.969L274.404 280.908L278.541 278.52L279.196 279.655L273.79 282.776ZM280.702 278.785L276.532 271.563L279.751 269.705C280.59 269.22 281.368 269.051 282.085 269.196C282.798 269.335 283.357 269.755 283.762 270.457C284.092 271.028 284.209 271.588 284.114 272.138C284.015 272.681 283.744 273.182 283.302 273.639L286.83 275.247L285.334 276.111L282.086 274.63L280.517 275.535L281.971 278.053L280.702 278.785ZM279.868 274.411L281.725 273.338C282.179 273.076 282.477 272.758 282.618 272.383C282.759 272.008 282.721 271.631 282.502 271.253C282.28 270.868 281.978 270.647 281.598 270.592C281.217 270.537 280.79 270.646 280.315 270.92L278.468 271.986L279.868 274.411ZM287.539 274.838L286.517 265.73L287.693 265.051L295.07 270.49L293.729 271.264L291.99 269.943L288.575 271.915L288.839 274.088L287.539 274.838ZM288.39 270.522L290.876 269.087L287.96 266.919L288.39 270.522ZM299.362 268.177C298.248 268.82 297.141 268.991 296.041 268.691C294.945 268.38 294.084 267.684 293.461 266.604C292.865 265.572 292.708 264.489 292.988 263.355C293.276 262.217 293.956 261.338 295.029 260.719C295.634 260.369 296.198 260.154 296.72 260.073C297.238 259.985 297.788 259.993 298.37 260.097L298.12 261.521C297.666 261.434 297.249 261.418 296.868 261.473C296.49 261.517 296.084 261.664 295.651 261.915C294.99 262.296 294.578 262.868 294.414 263.633C294.257 264.393 294.383 265.127 294.792 265.836C295.225 266.585 295.809 267.073 296.545 267.3C297.277 267.519 298.008 267.418 298.737 266.997C299.411 266.608 299.887 266.09 300.165 265.444L299.384 264.092L297.537 265.159L296.9 264.055L299.975 262.279L301.726 265.313C301.285 266.567 300.497 267.521 299.362 268.177ZM303.956 265.359L299.787 258.137L305.141 255.046L305.797 256.181L301.711 258.539L302.795 260.417L306.416 258.326L307.072 259.461L303.45 261.552L304.57 263.492L308.707 261.103L309.363 262.238L303.956 265.359ZM314.287 261.334C311.779 261.389 309.976 260.467 308.88 258.569C307.784 256.67 307.887 254.648 309.188 252.503L310.218 253.023C309.757 253.94 309.516 254.785 309.495 255.559C309.48 256.328 309.692 257.091 310.128 257.848C310.565 258.604 311.12 259.169 311.794 259.541C312.474 259.91 313.327 260.124 314.352 260.183L314.287 261.334ZM315.412 258.745L311.243 251.523L314.482 249.653C315.314 249.172 316.067 249.022 316.74 249.202C317.25 249.339 317.645 249.651 317.927 250.14C318.34 250.855 318.306 251.59 317.825 252.345C318.968 252.116 319.787 252.432 320.284 253.292C320.649 253.924 320.69 254.552 320.407 255.174C320.124 255.796 319.574 256.343 318.755 256.815L315.412 258.745ZM314.248 253.846L315.981 252.845C316.401 252.603 316.684 252.33 316.829 252.026C316.977 251.711 316.956 251.388 316.766 251.058C316.599 250.769 316.36 250.609 316.048 250.578C315.733 250.54 315.372 250.638 314.966 250.873L313.14 251.927L314.248 253.846ZM316.011 256.9L318.116 255.685C318.556 255.431 318.847 255.148 318.989 254.837C319.137 254.522 319.116 254.2 318.925 253.87C318.552 253.223 317.87 253.186 316.88 253.757L314.868 254.919L316.011 256.9ZM322.435 254.691L321.857 253.69L323.123 250.139C323.385 249.419 323.534 248.866 323.567 248.479C323.604 248.082 323.531 247.725 323.348 247.409C323.15 247.065 322.883 246.857 322.548 246.784C322.208 246.705 321.87 246.763 321.533 246.957C321.217 247.14 320.981 247.391 320.826 247.71C320.677 248.025 320.565 248.457 320.487 249.006L319.185 248.822C319.254 248.085 319.416 247.483 319.669 247.016C319.925 246.538 320.359 246.122 320.971 245.769C321.679 245.36 322.369 245.228 323.039 245.373C323.71 245.517 324.234 245.916 324.611 246.57C324.774 246.852 324.886 247.126 324.949 247.393C325.007 247.653 325.014 247.951 324.97 248.288C324.929 248.615 324.861 248.934 324.766 249.245C324.674 249.546 324.534 249.948 324.348 250.45L323.577 252.546L327.012 250.562L327.656 251.677L322.435 254.691ZM330.339 248.669L329.201 246.699L327.22 247.842L326.565 246.707L328.546 245.564L327.408 243.593L328.585 242.914L329.722 244.885L331.703 243.741L332.358 244.876L330.378 246.019L331.515 247.99L330.339 248.669ZM335.785 246.983L331.615 239.761L334.308 238.206C335.436 237.555 336.556 237.367 337.669 237.642C338.777 237.909 339.631 238.563 340.231 239.601C340.827 240.633 340.962 241.701 340.637 242.806C340.319 243.907 339.599 244.781 338.478 245.428L335.785 246.983ZM336.387 245.095L337.811 244.273C338.56 243.84 339.035 243.264 339.233 242.543C339.428 241.817 339.317 241.092 338.9 240.37C338.487 239.654 337.917 239.199 337.19 239.005C336.463 238.81 335.725 238.929 334.975 239.362L333.552 240.184L336.387 245.095ZM343.433 242.568L342.855 241.567L344.12 238.016C344.383 237.296 344.531 236.743 344.565 236.356C344.602 235.959 344.529 235.602 344.346 235.286C344.147 234.942 343.88 234.734 343.545 234.662C343.206 234.582 342.868 234.64 342.531 234.835C342.214 235.017 341.979 235.268 341.823 235.587C341.675 235.902 341.562 236.334 341.485 236.883L340.182 236.7C340.252 235.962 340.413 235.36 340.666 234.893C340.922 234.415 341.356 233.999 341.968 233.646C342.677 233.237 343.366 233.105 344.037 233.25C344.707 233.394 345.231 233.794 345.609 234.447C345.771 234.729 345.884 235.003 345.946 235.27C346.004 235.53 346.012 235.828 345.968 236.165C345.927 236.492 345.859 236.811 345.764 237.122C345.672 237.423 345.532 237.825 345.345 238.327L344.574 240.423L348.01 238.439L348.653 239.554L343.433 242.568ZM351.136 240.06L350.107 239.54C350.568 238.622 350.806 237.779 350.82 237.01C350.841 236.236 350.633 235.471 350.196 234.715C349.76 233.958 349.201 233.395 348.521 233.027C347.847 232.655 346.998 232.439 345.973 232.379L346.037 231.228C348.55 231.18 350.353 232.102 351.445 233.994C352.537 235.885 352.434 237.907 351.136 240.06Z" fill="#BFDBCC"/>
<path d="M251.69 12.14C250.131 12.14 248.769 11.6173 247.602 10.572L248.638 9.34C249.618 10.1893 250.649 10.614 251.732 10.614C252.264 10.614 252.684 10.502 252.992 10.278C253.309 10.0447 253.468 9.73667 253.468 9.354C253.468 8.99 253.319 8.70067 253.02 8.486C252.721 8.262 252.133 8.04733 251.256 7.842C250.117 7.57133 249.287 7.23067 248.764 6.82C248.251 6.4 247.994 5.76067 247.994 4.902C247.994 4.062 248.307 3.38067 248.932 2.858C249.557 2.326 250.36 2.06 251.34 2.06C252.684 2.06 253.869 2.47067 254.896 3.292L253.972 4.594C253.067 3.922 252.18 3.586 251.312 3.586C250.817 3.586 250.425 3.698 250.136 3.922C249.856 4.146 249.716 4.43067 249.716 4.776C249.716 5.15867 249.87 5.45733 250.178 5.672C250.495 5.87733 251.116 6.092 252.04 6.316C253.123 6.57733 253.916 6.92733 254.42 7.366C254.933 7.80467 255.19 8.42067 255.19 9.214C255.19 10.1193 254.868 10.8333 254.224 11.356C253.58 11.8787 252.735 12.14 251.69 12.14ZM261.233 12.154C259.936 12.154 258.914 11.7853 258.167 11.048C257.43 10.3107 257.061 9.242 257.061 7.842V2.2H258.783V7.772C258.783 8.668 259.002 9.35867 259.441 9.844C259.88 10.3293 260.486 10.572 261.261 10.572C262.036 10.572 262.638 10.3387 263.067 9.872C263.506 9.40533 263.725 8.72867 263.725 7.842V2.2H265.447V7.758C265.447 9.186 265.074 10.278 264.327 11.034C263.58 11.7807 262.549 12.154 261.233 12.154ZM267.811 12V2.2H269.645L272.627 6.834L275.609 2.2H277.443V12H275.721V4.972L272.627 9.592H272.571L269.505 5V12H267.811ZM280.063 12V2.2H281.785V12H280.063ZM284.408 12V2.2H291.702V3.768H286.13V6.442H291.072V8.01H286.13V12H284.408ZM297.096 13.974C294.511 12.5553 293.218 10.558 293.218 7.982C293.218 5.406 294.511 3.40867 297.096 1.99L297.838 3.124C296.83 3.78667 296.088 4.50533 295.612 5.28C295.145 6.05467 294.912 6.95533 294.912 7.982C294.912 9.00867 295.145 9.90933 295.612 10.684C296.088 11.4587 296.83 12.1773 297.838 12.84L297.096 13.974ZM303.888 12.168C302.469 12.168 301.284 11.6827 300.332 10.712C299.38 9.732 298.904 8.528 298.904 7.1C298.904 5.68133 299.38 4.482 300.332 3.502C301.284 2.522 302.493 2.032 303.958 2.032C304.807 2.032 305.526 2.16267 306.114 2.424C306.711 2.68533 307.271 3.06333 307.794 3.558L306.688 4.832C305.811 4.02 304.896 3.614 303.944 3.614C303.011 3.614 302.236 3.95 301.62 4.622C301.013 5.294 300.71 6.12 300.71 7.1C300.71 8.07067 301.018 8.89667 301.634 9.578C302.25 10.25 303.02 10.586 303.944 10.586C304.504 10.586 304.999 10.4833 305.428 10.278C305.857 10.0633 306.301 9.74133 306.758 9.312L307.864 10.432C307.313 11.0107 306.73 11.4447 306.114 11.734C305.498 12.0233 304.756 12.168 303.888 12.168ZM312.768 12.168C311.209 12.168 309.959 11.594 309.016 10.446L310.22 9.326C310.948 10.1847 311.807 10.614 312.796 10.614C313.291 10.614 313.697 10.4787 314.014 10.208C314.331 9.928 314.49 9.55933 314.49 9.102C314.49 8.626 314.285 8.25733 313.874 7.996C313.473 7.72533 312.927 7.59 312.236 7.59H311.438L311.158 6.512L313.804 3.698H309.562V2.2H316.044V3.488L313.314 6.288C314.173 6.40933 314.868 6.69867 315.4 7.156C315.932 7.604 316.198 8.24333 316.198 9.074C316.198 9.97933 315.876 10.7213 315.232 11.3C314.597 11.8787 313.776 12.168 312.768 12.168ZM318.09 6.526V4.608H319.952V6.526H318.09ZM318.09 12V10.082H319.952V12H318.09ZM326.789 12.168C325.37 12.168 324.185 11.6827 323.233 10.712C322.281 9.732 321.805 8.528 321.805 7.1C321.805 5.68133 322.281 4.482 323.233 3.502C324.185 2.522 325.393 2.032 326.859 2.032C327.708 2.032 328.427 2.16267 329.015 2.424C329.612 2.68533 330.172 3.06333 330.695 3.558L329.589 4.832C328.711 4.02 327.797 3.614 326.845 3.614C325.911 3.614 325.137 3.95 324.521 4.622C323.914 5.294 323.611 6.12 323.611 7.1C323.611 8.07067 323.919 8.89667 324.535 9.578C325.151 10.25 325.921 10.586 326.845 10.586C327.405 10.586 327.899 10.4833 328.329 10.278C328.758 10.0633 329.201 9.74133 329.659 9.312L330.765 10.432C330.214 11.0107 329.631 11.4447 329.015 11.734C328.399 12.0233 327.657 12.168 326.789 12.168ZM333.806 12V3.88L332.042 4.37L331.678 2.97L334.31 2.13H335.514V12H333.806ZM337.551 12V10.642L340.925 7.772C341.616 7.19333 342.092 6.71733 342.353 6.344C342.624 5.96133 342.759 5.55533 342.759 5.126C342.759 4.65933 342.61 4.29067 342.311 4.02C342.013 3.74 341.635 3.6 341.177 3.6C340.748 3.6 340.361 3.71667 340.015 3.95C339.679 4.18333 339.311 4.55667 338.909 5.07L337.691 4.118C338.195 3.40867 338.713 2.89067 339.245 2.564C339.787 2.228 340.473 2.06 341.303 2.06C342.265 2.06 343.044 2.33067 343.641 2.872C344.239 3.41333 344.537 4.12733 344.537 5.014C344.537 5.39667 344.491 5.742 344.397 6.05C344.304 6.34867 344.136 6.65667 343.893 6.974C343.66 7.282 343.403 7.56667 343.123 7.828C342.853 8.08 342.475 8.40667 341.989 8.808L339.973 10.488H344.635V12H337.551ZM346.109 14.03L345.927 13.316C346.73 13.1573 347.131 12.77 347.131 12.154C347.131 12.1353 347.127 12.1073 347.117 12.07C347.117 12.042 347.117 12.0187 347.117 12H346.403V10.082H348.265V11.706C348.265 12.462 348.088 13.022 347.733 13.386C347.379 13.7593 346.837 13.974 346.109 14.03ZM349.378 6.162L349.196 5.434C349.999 5.294 350.4 4.90667 350.4 4.272C350.4 4.25333 350.396 4.23 350.386 4.202C350.386 4.16467 350.386 4.13667 350.386 4.118H349.672V2.2H351.534V3.838C351.534 4.594 351.357 5.15867 351.002 5.532C350.648 5.896 350.106 6.106 349.378 6.162ZM353.138 6.162L352.956 5.434C353.759 5.294 354.16 4.90667 354.16 4.272C354.16 4.25333 354.155 4.23 354.146 4.202C354.146 4.16467 354.146 4.13667 354.146 4.118H353.432V2.2H355.294V3.838C355.294 4.594 355.117 5.15867 354.762 5.532C354.407 5.896 353.866 6.106 353.138 6.162ZM357.472 10.922V9.312L362.47 7.086L357.472 4.846V3.222L364.15 6.316V7.828L357.472 10.922ZM366.609 12L371.005 3.712H366.077V2.2H372.965V3.502L368.541 12H366.609ZM378.437 12.168C377.167 12.168 376.141 11.6873 375.357 10.726C374.573 9.75533 374.181 8.54667 374.181 7.1C374.181 5.672 374.577 4.47267 375.371 3.502C376.173 2.522 377.205 2.032 378.465 2.032C379.725 2.032 380.747 2.51733 381.531 3.488C382.324 4.45867 382.721 5.66267 382.721 7.1C382.721 8.528 382.319 9.732 381.517 10.712C380.723 11.6827 379.697 12.168 378.437 12.168ZM376.645 9.606C377.111 10.278 377.718 10.614 378.465 10.614C379.211 10.614 379.809 10.2827 380.257 9.62C380.714 8.948 380.943 8.108 380.943 7.1C380.943 6.11067 380.709 5.28 380.243 4.608C379.776 3.92667 379.174 3.586 378.437 3.586C377.69 3.586 377.088 3.922 376.631 4.594C376.183 5.25667 375.959 6.092 375.959 7.1C375.959 8.08933 376.187 8.92467 376.645 9.606ZM383.898 14.03L383.716 13.316C384.519 13.1573 384.92 12.77 384.92 12.154C384.92 12.1353 384.916 12.1073 384.906 12.07C384.906 12.042 384.906 12.0187 384.906 12H384.192V10.082H386.054V11.706C386.054 12.462 385.877 13.022 385.522 13.386C385.168 13.7593 384.626 13.974 383.898 14.03ZM391.781 12.168C390.511 12.168 389.485 11.6873 388.701 10.726C387.917 9.75533 387.525 8.54667 387.525 7.1C387.525 5.672 387.921 4.47267 388.715 3.502C389.517 2.522 390.549 2.032 391.809 2.032C393.069 2.032 394.091 2.51733 394.875 3.488C395.668 4.45867 396.065 5.66267 396.065 7.1C396.065 8.528 395.663 9.732 394.861 10.712C394.067 11.6827 393.041 12.168 391.781 12.168ZM389.989 9.606C390.455 10.278 391.062 10.614 391.809 10.614C392.555 10.614 393.153 10.2827 393.601 9.62C394.058 8.948 394.287 8.108 394.287 7.1C394.287 6.11067 394.053 5.28 393.587 4.608C393.12 3.92667 392.518 3.586 391.781 3.586C391.034 3.586 390.432 3.922 389.975 4.594C389.527 5.25667 389.303 6.092 389.303 7.1C389.303 8.08933 389.531 8.92467 389.989 9.606ZM401.911 12.168C400.642 12.168 399.615 11.6873 398.831 10.726C398.047 9.75533 397.655 8.54667 397.655 7.1C397.655 5.672 398.052 4.47267 398.845 3.502C399.648 2.522 400.679 2.032 401.939 2.032C403.199 2.032 404.221 2.51733 405.005 3.488C405.799 4.45867 406.195 5.66267 406.195 7.1C406.195 8.528 405.794 9.732 404.991 10.712C404.198 11.6827 403.171 12.168 401.911 12.168ZM400.119 9.606C400.586 10.278 401.193 10.614 401.939 10.614C402.686 10.614 403.283 10.2827 403.731 9.62C404.189 8.948 404.417 8.108 404.417 7.1C404.417 6.11067 404.184 5.28 403.717 4.608C403.251 3.92667 402.649 3.586 401.911 3.586C401.165 3.586 400.563 3.922 400.105 4.594C399.657 5.25667 399.433 6.092 399.433 7.1C399.433 8.08933 399.662 8.92467 400.119 9.606ZM412.042 12.168C410.773 12.168 409.746 11.6873 408.962 10.726C408.178 9.75533 407.786 8.54667 407.786 7.1C407.786 5.672 408.183 4.47267 408.976 3.502C409.779 2.522 410.81 2.032 412.07 2.032C413.33 2.032 414.352 2.51733 415.136 3.488C415.93 4.45867 416.326 5.66267 416.326 7.1C416.326 8.528 415.925 9.732 415.122 10.712C414.329 11.6827 413.302 12.168 412.042 12.168ZM410.25 9.606C410.717 10.278 411.324 10.614 412.07 10.614C412.817 10.614 413.414 10.2827 413.862 9.62C414.32 8.948 414.548 8.108 414.548 7.1C414.548 6.11067 414.315 5.28 413.848 4.608C413.382 3.92667 412.78 3.586 412.042 3.586C411.296 3.586 410.694 3.922 410.236 4.594C409.788 5.25667 409.564 6.092 409.564 7.1C409.564 8.08933 409.793 8.92467 410.25 9.606ZM417.847 6.162L417.665 5.434C418.468 5.294 418.869 4.90667 418.869 4.272C418.869 4.25333 418.864 4.23 418.855 4.202C418.855 4.16467 418.855 4.13667 418.855 4.118H418.141V2.2H420.003V3.838C420.003 4.594 419.826 5.15867 419.471 5.532C419.116 5.896 418.575 6.106 417.847 6.162ZM421.607 6.162L421.425 5.434C422.228 5.294 422.629 4.90667 422.629 4.272C422.629 4.25333 422.624 4.23 422.615 4.202C422.615 4.16467 422.615 4.13667 422.615 4.118H421.901V2.2H423.763V3.838C423.763 4.594 423.586 5.15867 423.231 5.532C422.876 5.896 422.335 6.106 421.607 6.162ZM426.053 13.974L425.311 12.84C426.319 12.1773 427.056 11.4587 427.523 10.684C427.999 9.90933 428.237 9.00867 428.237 7.982C428.237 6.95533 427.999 6.05467 427.523 5.28C427.056 4.50533 426.319 3.78667 425.311 3.124L426.053 1.99C428.638 3.418 429.931 5.41533 429.931 7.982C429.931 10.5487 428.638 12.546 426.053 13.974Z" fill="#97C3AB"/>
<path d="M255.142 117.557L258.355 112.317L257.455 112.051L258.243 110.766L259.143 111.031L259.448 110.494C260.221 109.126 261.338 108.658 262.797 109.089C263.343 109.25 263.784 109.468 264.122 109.743L263.359 110.992C263.061 110.748 262.751 110.579 262.429 110.484C261.829 110.306 261.342 110.523 260.967 111.132L260.741 111.503L262.701 112.082L261.913 113.368L259.979 112.797L256.767 118.037L255.142 117.557ZM262.83 121.901C261.604 120.089 261.261 118.265 261.803 116.43C262.229 114.989 263.073 113.812 264.335 112.901C265.608 111.982 267.202 111.431 269.115 111.247L269.349 112.63C267.767 112.844 266.475 113.333 265.47 114.097C264.466 114.861 263.804 115.785 263.484 116.868C263.103 118.157 263.317 119.592 264.125 121.174L262.83 121.901ZM265.346 120.571L270.048 117.945L269.413 114.065L271.159 114.58L271.495 117.147L274.26 115.496L276.22 116.075L271.732 118.618L272.368 122.645L270.622 122.13L270.275 119.399L267.319 121.154L265.346 120.571ZM272.894 124.83L272.66 123.447C274.242 123.233 275.535 122.743 276.539 121.979C277.543 121.215 278.205 120.292 278.525 119.208C278.908 117.911 278.689 116.478 277.867 114.912L279.179 114.176C280.406 115.988 280.748 117.812 280.206 119.646C279.78 121.088 278.93 122.267 277.657 123.185C276.392 124.106 274.805 124.654 272.894 124.83ZM286.96 120.809L287.807 119.425L294.091 121.281L293.244 122.665L286.96 120.809ZM285.069 123.9L285.916 122.516L292.2 124.371L291.353 125.756L285.069 123.9ZM296.427 129.751L301.728 121.098L303.406 121.594L303.731 126.522L309.072 123.267L310.965 123.827L305.665 132.48L303.987 131.984L307.79 125.779L302.346 128.989L302.292 128.973L301.861 124.057L298.079 130.239L296.427 129.751ZM308.178 133.222L313.478 124.569L315.143 125.061L309.843 133.714L308.178 133.222ZM312.345 134.453L317.645 125.8L319.176 126.252L320.395 133.838L324.157 127.723L325.782 128.203L320.482 136.856L319.099 136.448L317.828 128.642L313.983 134.937L312.345 134.453ZM325.452 140.397C324.226 138.585 323.884 136.761 324.426 134.926C324.852 133.485 325.695 132.309 326.957 131.397C328.231 130.478 329.824 129.927 331.738 129.743L331.971 131.126C330.39 131.34 329.097 131.829 328.093 132.593C327.089 133.358 326.427 134.281 326.107 135.364C325.726 136.653 325.939 138.088 326.747 139.67L325.452 140.397ZM328.814 139.317L334.114 130.664L341.015 132.702L340.176 134.06L334.926 132.51L333.543 134.772L338.202 136.148L337.367 137.493L332.708 136.117L331.291 138.443L336.621 140.017L335.782 141.375L328.814 139.317ZM337.06 141.752L337.819 140.517L343.89 138.398C344.497 138.188 344.962 137.965 345.284 137.729C345.607 137.494 345.817 137.21 345.915 136.879C346.021 136.521 345.974 136.201 345.775 135.918C345.586 135.638 345.271 135.434 344.833 135.304C344.063 135.077 343.151 135.25 342.095 135.824L341.375 134.458C342.712 133.656 344.033 133.448 345.34 133.834C346.253 134.103 346.923 134.554 347.349 135.186C347.778 135.809 347.885 136.488 347.668 137.222C347.501 137.786 347.188 138.253 346.728 138.623C346.269 138.993 345.567 139.341 344.625 139.666L340.388 141.159L344.779 142.456L343.961 143.791L337.06 141.752ZM348.673 139.475L349.713 137.782L351.499 138.309L350.459 140.002L348.673 139.475ZM345.713 144.308L346.753 142.615L348.538 143.143L347.498 144.836L345.713 144.308ZM349.793 145.513L355.093 136.86L361.994 138.899L361.155 140.257L355.906 138.706L354.522 140.969L359.181 142.345L358.346 143.689L353.687 142.313L352.27 144.639L357.6 146.214L356.761 147.571L349.793 145.513ZM361.728 149.199C361.03 148.993 360.418 148.642 359.893 148.146C359.371 147.641 359.02 147.1 358.84 146.521L360.303 145.917C360.72 146.877 361.385 147.492 362.298 147.762C362.943 147.952 363.528 147.93 364.055 147.697C364.59 147.465 364.932 147.099 365.08 146.598C365.207 146.168 365.14 145.769 364.879 145.4C364.627 145.034 364.201 144.762 363.602 144.585C363.118 144.442 362.57 144.421 361.956 144.522L361.303 143.57L364.091 139.518L369.609 141.148L368.761 142.488L364.746 141.303L363.396 143.254C363.832 143.227 364.256 143.275 364.668 143.396C365.545 143.655 366.184 144.112 366.585 144.765C366.988 145.41 367.071 146.135 366.833 146.94C366.553 147.889 365.932 148.591 364.97 149.047C364.008 149.503 362.927 149.553 361.728 149.199ZM365.831 152.279L365.597 150.897C367.179 150.682 368.472 150.193 369.476 149.429C370.48 148.665 371.142 147.741 371.462 146.658C371.846 145.36 371.626 143.928 370.804 142.362L372.117 141.626C373.343 143.438 373.685 145.261 373.143 147.096C372.717 148.537 371.868 149.717 370.594 150.635C369.33 151.556 367.742 152.104 365.831 152.279Z" fill="#BFDBCC"/>
<path d="M322 397.031L315.281 399.249C310.253 385.461 297.066 375.411 282.2 375C281.688 374.985 282.304 380.298 282.358 380.727C282.439 381.334 282.874 386.29 283.656 386.313C294.421 386.612 305.209 392.405 311.666 400.967L305.348 403.208L319.016 415L322 397.031Z" fill="#0F7C41"/>
<path d="M-0.656904 684.731C-2.44194 684.252 -3.62248 683.303 -4.19855 681.883L-2.66191 681.179C-2.11672 682.281 -1.28518 682.983 -0.167286 683.282C0.364618 683.425 0.834471 683.42 1.24228 683.268C1.65008 683.117 1.90592 682.847 2.00979 682.46C2.08709 682.171 2.0261 681.894 1.82681 681.628C1.63896 681.355 1.24649 680.999 0.649416 680.559C-0.0749986 680.017 -0.589322 679.502 -0.893554 679.015C-1.19779 678.527 -1.26777 677.977 -1.10351 677.364C-0.869188 676.49 -0.331263 675.87 0.51027 675.507C1.35422 675.134 2.29457 675.086 3.33133 675.364C4.79181 675.755 5.82346 676.539 6.42627 677.715L4.95893 678.539C4.41292 677.62 3.69817 677.042 2.81467 676.805C2.28277 676.663 1.82072 676.674 1.42853 676.84C1.04777 676.998 0.812704 677.245 0.723325 677.578C0.643609 677.876 0.703393 678.157 0.902677 678.423C1.11339 678.683 1.53741 679.048 2.17474 679.518C2.87694 680.035 3.36993 680.539 3.65372 681.03C3.94893 681.515 4.0132 682.069 3.84652 682.691C3.60496 683.592 3.04868 684.226 2.17768 684.592C1.3157 684.96 0.370841 685.006 -0.656904 684.731ZM8.3483 687.158C7.24843 686.863 6.46236 686.353 5.99007 685.628C5.5268 684.904 5.4244 684.061 5.68287 683.096C5.80366 682.645 6.00985 682.164 6.30145 681.653L8.96376 677.018L10.6271 677.464L7.83556 682.31C7.65361 682.629 7.51553 682.964 7.42132 683.315C7.27397 683.865 7.32689 684.353 7.58009 684.778C7.8333 685.204 8.27994 685.502 8.92003 685.674C10.3174 686.048 11.4966 685.398 12.4575 683.723L15.3466 678.728L17.0099 679.174L13.9844 684.407C12.5529 686.864 10.6743 687.781 8.3483 687.158ZM14.2804 688.588L19.3591 679.803L21.0495 680.256L21.4999 685.174L26.7562 681.785L28.6629 682.296L23.5842 691.081L21.8938 690.628L25.5384 684.329L20.1776 687.675L20.1235 687.661L19.5675 682.758L15.9437 689.034L14.2804 688.588ZM28.6433 694.495C27.3715 692.714 26.9832 690.9 27.4784 689.052C27.8673 687.6 28.681 686.403 29.9194 685.459C31.1692 684.509 32.7481 683.918 34.6561 683.685L34.925 685.061C33.3495 685.315 32.0695 685.837 31.0849 686.627C30.1004 687.416 29.462 688.356 29.1697 689.447C28.8219 690.745 29.0717 692.175 29.9194 693.735L28.6433 694.495ZM31.0433 693.08L40.3188 685.347L41.9145 685.775L40.9692 695.739L39.2653 695.283L39.5126 692.9L35.0365 691.7L32.8419 693.562L31.0433 693.08ZM36.4456 690.498L39.7047 691.371L40.1216 687.381L36.4456 690.498ZM43.3046 696.365L47.4633 689.175L45.5416 689.152L45.8986 687.712L48.9153 687.65L50.0647 687.958L44.9544 696.807L43.3046 696.365ZM50.9139 696.868L52.2957 694.47L49.6993 693.774L50.5035 692.395L53.0999 693.091L54.4682 690.689L56.0233 691.106L54.6416 693.504L57.238 694.2L56.4337 695.579L53.8373 694.883L52.4555 697.281L50.9139 696.868ZM56.5 699.901L61.5787 691.116L65.2029 692.087C66.2036 692.355 66.9131 692.772 67.3315 693.339C67.7523 693.896 67.8721 694.513 67.6909 695.189C67.5218 695.82 67.1834 696.29 66.6756 696.598C66.1678 696.906 65.57 697.046 64.8823 697.016C65.7545 697.656 66.0686 698.431 65.8246 699.341C65.5951 700.198 65.0542 700.792 64.2019 701.124C63.3496 701.456 62.2923 701.453 61.0302 701.115L56.5 699.901ZM61.0643 695.254L63.4173 695.884C64.0844 696.063 64.6411 696.077 65.0874 695.926C65.5337 695.775 65.8184 695.47 65.9416 695.01C66.1324 694.298 65.705 693.802 64.6592 693.521L62.4144 692.92L61.0643 695.254ZM58.9234 698.97L61.655 699.702C62.3222 699.881 62.8801 699.891 63.3288 699.731C63.7865 699.573 64.077 699.264 64.2002 698.805C64.2944 698.453 64.2193 698.138 63.9749 697.86C63.7306 697.582 63.3515 697.374 62.8376 697.236L60.3088 696.559L58.9234 698.97ZM70.4124 703.629L71.5492 701.658L66.9514 700.426L67.1054 699.148L75.4957 694.773L77.105 695.204L73.8625 700.814L75.2148 701.176L74.4837 702.444L73.1314 702.082L71.9946 704.053L70.4124 703.629ZM69.2647 699.582L72.2803 700.39L74.3055 696.889L69.2647 699.582ZM74.1181 706.636L73.8492 705.26C75.4246 705.006 76.7047 704.484 77.6892 703.694C78.6737 702.905 79.3121 701.965 79.6044 700.874C79.9547 699.567 79.6991 698.141 78.8376 696.596L80.1308 695.826C81.4027 697.607 81.791 699.421 81.2958 701.269C80.9068 702.721 80.0875 703.921 78.8376 704.872C77.5968 705.824 76.0236 706.413 74.1181 706.636Z" fill="#BFDBCC"/>
</svg>
