<svg xmlns="http://www.w3.org/2000/svg" width="100" height="30" fill="none"><path fill="#010101" fill-rule="evenodd" d="M100 0H56v30h44V0ZM69.896 8.26V21.358c0 .028.002.055 0 .082-.007.075.013.12.1.108.02-.002.04-.002.062-.001h.03l1.093.001h2.252c.07.001.104.001.12-.015.015-.016.015-.048.013-.11V8.28l-.001-.031a.469.469 0 0 1 0-.062c.008-.077-.018-.117-.101-.108a.315.315 0 0 1-.051.001H72.283c-.737-.001-1.474-.002-2.21 0l-.058-.001c-.06-.001-.091-.001-.106.014s-.015.046-.014.108v.06Zm18.278-.181H82.7c-1.824 0-3.648 0-5.47-.002h-.124c-.062-.003-.084.027-.079.084v3.235c0 .067 0 .1.016.116s.047.016.11.015h3.481c.112 0 .167 0 .195.028.027.027.027.08.027.188v9.689c-.001.055-.002.084.013.099.015.016.048.016.118.016h3.334c.103 0 .154 0 .18-.026.025-.025.025-.075.025-.175V11.651c-.002-.06-.002-.09.013-.106.017-.017.052-.017.124-.017h3.546c.152 0 .152 0 .153-.149V8.211c.001-.068.002-.101-.015-.118-.016-.016-.049-.015-.114-.015h-.059ZM44 0H0v30h44l12-15L44 0ZM19.455 12.808l.202.163c.045-.027.073-.065.1-.1a1.71 1.71 0 0 1 .018-.025c.238-.283.475-.568.712-.853.476-.568.95-1.136 1.423-1.706.095-.114.091-.167-.017-.259a12.043 12.043 0 0 0-.26-.219c-.753-.616-1.58-1.096-2.516-1.375a8.877 8.877 0 0 0-1.916-.331c-.848-.057-1.69-.03-2.522.163-2.918.672-5.095 3.086-5.35 6.182a7.317 7.317 0 0 0 .21 2.473c.487 1.838 1.543 3.245 3.22 4.172.913.505 1.903.772 2.943.855.881.07 1.753.017 2.614-.177 1.456-.328 2.742-.99 3.887-1.938a.314.314 0 0 0 .128-.27c-.003-1.474-.003-2.949-.003-4.423v-1.105l-.002-.058c-.003-.043-.006-.086.005-.125.014-.046-.01-.072-.035-.097-.02-.021-.039-.042-.036-.073.006-.05-.028-.058-.068-.058H16.01a.65.65 0 0 1-.072 0c-.062-.006-.082.025-.078.082a.619.619 0 0 1 0 .107v2.981c-.002.059-.002.09.012.105.016.016.05.016.118.015h2.546c.067-.002.1-.002.116.014.014.015.014.045.013.104v.073a42.131 42.131 0 0 1 0 .63v.006c0 .29 0 .291-.262.417-.767.366-1.576.471-2.413.366-.929-.115-1.672-.554-2.217-1.313a3.505 3.505 0 0 1-.621-1.653c-.091-.767.002-1.504.35-2.2.42-.837 1.054-1.437 1.966-1.713.64-.194 1.287-.143 1.928-.003.581.126 1.087.41 1.553.765.171.13.337.264.506.4Zm17.2-2.794c-1.433-1.303-3.14-1.923-4.903-1.937-.814.001-1.423.067-2.069.235-1.873.488-3.34 1.536-4.314 3.208-1 1.716-1.203 3.556-.644 5.449.626 2.116 1.959 3.656 4.021 4.514 1.585.657 3.226.745 4.881.31 1.923-.503 3.398-1.616 4.364-3.353.814-1.465 1.032-3.036.729-4.676-.273-1.474-.954-2.737-2.066-3.75Zm-7.91 3.308c.624-1.15 1.621-1.702 2.589-1.723 1.963-.005 3.247 1.1 3.597 2.63.212.923.118 1.819-.336 2.657-.534.984-1.367 1.557-2.488 1.684-1.084.125-2.03-.181-2.803-.96a3.356 3.356 0 0 1-.921-1.795c-.162-.87-.062-1.712.362-2.493Z" clip-rule="evenodd"/></svg>