<svg width="704" height="798" viewBox="0 0 704 798" fill="none" xmlns="http://www.w3.org/2000/svg">
<g clip-path="url(#clip0_1_1752)">
<path d="M1295.66 761.811H0.838562V763.488H1295.66V761.811Z" fill="#E7E7E7"/>
<path d="M1295.66 721.294H0.838562V722.971H1295.66V721.294Z" fill="#E7E7E7"/>
<path d="M1295.66 680.778H0.838562V682.455H1295.66V680.778Z" fill="#E7E7E7"/>
<path d="M1295.66 640.262H0.838562V641.939H1295.66V640.262Z" fill="#E7E7E7"/>
<path d="M1295.66 599.745H0.838562V601.422H1295.66V599.745Z" fill="#E7E7E7"/>
<path d="M1295.66 559.229H0.838562V560.906H1295.66V559.229Z" fill="#E7E7E7"/>
<path d="M1295.66 518.713H0.838562V520.39H1295.66V518.713Z" fill="#E7E7E7"/>
<path d="M1295.66 478.196H0.838562V479.873H1295.66V478.196Z" fill="#E7E7E7"/>
<path d="M1295.66 437.68H0.838562V439.357H1295.66V437.68Z" fill="#E7E7E7"/>
<path d="M1295.66 397.164H0.838562V398.84H1295.66V397.164Z" fill="#E7E7E7"/>
<path d="M1295.66 356.647H0.838562V358.324H1295.66V356.647Z" fill="#E7E7E7"/>
<path d="M1295.66 316.131H0.838562V317.808H1295.66V316.131Z" fill="#E7E7E7"/>
<path d="M1295.66 275.614H0.838562V277.291H1295.66V275.614Z" fill="#E7E7E7"/>
<path d="M1295.66 235.098H0.838562V236.775H1295.66V235.098Z" fill="#E7E7E7"/>
<path d="M1295.66 194.582H0.838562V196.259H1295.66V194.582Z" fill="#E7E7E7"/>
<path d="M1295.66 154.065H0.838623V155.742H1295.66V154.065Z" fill="#E7E7E7"/>
<path d="M1295.66 113.549H0.838623V115.226H1295.66V113.549Z" fill="#E7E7E7"/>
<path d="M1295.66 73.0327H0.838623V74.7097H1295.66V73.0327Z" fill="#E7E7E7"/>
<path d="M1295.66 32.5164H0.838623V34.1933H1295.66V32.5164Z" fill="#E7E7E7"/>
<path d="M629.466 -7.16152H627.789V803.166H629.466V-7.16152Z" fill="#E7E7E7"/>
<path d="M511.756 -7.16152H510.079V803.166H511.756V-7.16152Z" fill="#E7E7E7"/>
<path d="M394.047 -7.16153H392.37V803.165H394.047V-7.16153Z" fill="#E7E7E7"/>
<path d="M276.337 -7.16153H274.66V803.165H276.337V-7.16153Z" fill="#E7E7E7"/>
<path d="M158.627 -7.16153H156.95V803.165H158.627V-7.16153Z" fill="#E7E7E7"/>
<path d="M40.9136 -7.16153H39.2366V803.165H40.9136V-7.16153Z" fill="#E7E7E7"/>
<g clip-path="url(#clip1_1_1752)">
<path d="M558.861 787.626C558.606 787.881 558.244 788.035 557.843 788.02C553.092 787.864 548.633 788.843 543.914 789.879C540.228 790.689 536.416 791.527 532.441 791.775C531.64 791.827 530.909 791.214 530.808 790.409C530.706 789.603 531.269 788.912 532.069 788.86C535.824 788.624 539.529 787.809 543.111 787.023C547.793 785.995 552.635 784.929 557.749 785.1C558.554 785.127 559.228 785.801 559.255 786.607C559.268 787.011 559.117 787.37 558.861 787.626Z" fill="#0F7C41" fill-opacity="0.4"/>
<path d="M546.075 803.252C545.857 803.47 545.559 803.614 545.215 803.641C544.417 803.706 543.678 803.101 543.564 802.298C542.739 796.496 542.925 790.61 543.106 784.917C543.17 782.869 543.237 780.75 543.255 778.701C543.262 777.895 543.916 777.29 544.724 777.35C545.532 777.409 546.182 778.108 546.172 778.911C546.157 780.998 546.09 783.132 546.023 785.197C545.847 790.766 545.666 796.523 546.454 802.075C546.519 802.536 546.367 802.96 546.073 803.255L546.075 803.252Z" fill="#0F7C41" fill-opacity="0.4"/>
<path d="M553.377 765.649C551.865 767.161 550.204 768.529 548.596 769.855C547.304 770.918 545.968 772.021 544.749 773.166C544.286 773.6 543.567 773.655 542.994 773.295C542.422 772.936 542.134 772.252 542.295 771.625C543.465 767.069 542.112 764.219 540.456 763.074C539.353 762.308 538.094 762.229 537.252 762.873C535.948 763.86 535.886 766.291 537.076 769.364C537.373 770.133 537.006 770.955 536.255 771.201C535.507 771.449 534.659 771.027 534.359 770.262C531.943 764.013 534.282 761.356 535.385 760.511C537.19 759.133 539.854 759.215 542.013 760.71C542.984 761.384 545.614 763.647 545.669 768.365C545.998 768.09 546.325 767.823 546.652 767.555C548.278 766.217 549.989 764.814 551.424 763.339L551.431 763.332C551.979 762.784 552.896 762.809 553.486 763.389C554.08 763.974 554.118 764.898 553.57 765.456C553.503 765.523 553.439 765.587 553.374 765.652L553.377 765.649Z" fill="#0F7C41" fill-opacity="0.4"/>
<path d="M581.029 764.511C580.999 764.541 580.967 764.573 580.93 764.601C580.325 765.096 579.401 764.98 578.868 764.343C577.202 762.355 575.157 760.885 572.994 759.327C570.8 757.748 568.532 756.114 566.624 753.874C566.084 753.239 566.136 752.325 566.733 751.822C567.333 751.321 568.255 751.43 568.795 752.065C570.453 754.01 572.468 755.46 574.597 756.994C576.825 758.598 579.13 760.258 581.056 762.551C581.562 763.151 581.539 764.001 581.029 764.511Z" fill="#0F7C41" fill-opacity="0.4"/>
<path d="M579.46 758.501L569.249 768.712C568.696 769.265 567.774 769.235 567.184 768.646C566.594 768.056 566.565 767.134 567.117 766.581L577.328 756.37C577.879 755.819 578.803 755.847 579.393 756.437C579.983 757.026 580.01 757.951 579.46 758.501Z" fill="#0F7C41" fill-opacity="0.4"/>
<path d="M602.869 759.718C602.406 760.182 601.642 760.251 601.042 759.845C600.356 759.381 600.138 758.469 600.559 757.81C602.827 754.268 603.119 748.954 601.345 743.591C600.423 740.805 599.042 738.324 597.367 736.361C597.434 736.458 597.503 736.552 597.57 736.649C597.86 737.058 597.937 737.571 597.776 738.019C597.612 738.465 597.231 738.787 596.762 738.879L595.644 739.09C591.25 739.915 586.271 740.85 582.781 742.803C582.097 743.184 581.197 742.919 580.769 742.208C580.342 741.499 580.548 740.614 581.232 740.227C584.841 738.21 589.609 737.219 593.961 736.396C592.925 734.815 592.06 733.216 591.649 731.521C591.52 730.985 591.696 730.438 592.103 730.105C592.514 729.773 593.087 729.711 593.595 729.937C598.195 732.014 602.128 736.834 604.113 742.835C606.16 749.026 605.761 755.249 603.052 759.49C602.998 759.574 602.938 759.649 602.872 759.716L602.869 759.718Z" fill="#0F7C41" fill-opacity="0.4"/>
<path d="M598.693 714.196C597.397 715.492 595.493 716.499 593.85 717.364C593.188 717.713 592.561 718.043 592.15 718.31C591.493 718.734 590.581 718.526 590.112 717.84C589.644 717.153 589.798 716.251 590.452 715.83C590.963 715.497 591.609 715.158 592.358 714.761C594.088 713.849 596.983 712.322 597.283 710.962C597.501 709.98 597.374 709.2 596.936 708.825C596.395 708.359 595.292 708.362 594.125 708.83C593.503 709.081 592.757 708.85 592.343 708.278C591.927 707.703 591.949 706.942 592.4 706.451C592.826 705.985 592.99 705.45 593.106 704.813C591.015 705.71 589.034 707.893 587.237 709.874C586.563 710.617 585.916 711.324 585.287 711.958C584.734 712.511 583.81 712.474 583.222 711.886C582.635 711.299 582.608 710.374 583.158 709.824L583.205 709.777C583.78 709.202 584.382 708.54 585.017 707.836C587.758 704.813 590.868 701.385 594.955 701.472C595.451 701.482 595.922 701.744 596.207 702.163C596.494 702.585 596.556 703.108 596.375 703.556C596.232 703.908 596.162 704.349 596.086 704.862C596.051 705.09 596.011 705.328 595.967 705.576C597.035 705.648 598.001 706.015 598.757 706.667C600.096 707.817 600.596 709.675 600.135 711.767C599.932 712.684 599.402 713.487 598.688 714.201L598.693 714.196Z" fill="#0F7C41" fill-opacity="0.4"/>
<path d="M627.582 716.065C627.032 716.615 626.107 716.588 625.517 715.998L615.574 706.054C614.986 705.467 614.957 704.54 615.507 703.99C616.057 703.44 616.981 703.467 617.571 704.057L627.515 714C628.102 714.588 628.132 715.515 627.582 716.065Z" fill="#0F7C41" fill-opacity="0.4"/>
<path d="M628.737 709.224C628.69 709.272 628.638 709.319 628.581 709.361C627.022 710.498 625.354 711.562 623.743 712.588C620.959 714.36 618.082 716.191 615.722 718.452C615.157 718.992 614.233 718.945 613.655 718.343C613.08 717.743 613.073 716.794 613.63 716.281C616.181 713.839 619.17 711.936 622.062 710.094C623.641 709.091 625.269 708.052 626.759 706.964C627.388 706.503 628.31 706.667 628.814 707.328C629.272 707.931 629.227 708.739 628.739 709.227L628.737 709.224Z" fill="#0F7C41" fill-opacity="0.4"/>
<path d="M650.753 699.328C648.84 701.241 646.525 703.259 644.113 705.313C643.442 705.886 642.852 706.386 642.393 706.79C642.006 707.132 641.446 707.227 640.936 707.028C640.425 706.83 640.048 706.374 639.949 705.844C638.713 699.144 639.654 690.995 640.485 683.8C640.604 682.784 640.718 681.793 640.824 680.824C640.733 680.9 640.641 680.982 640.549 681.059C635.763 685.186 631.24 689.084 626.214 692.782C625.584 693.248 624.667 693.085 624.162 692.425C623.658 691.764 623.755 690.859 624.387 690.39C629.329 686.752 633.815 682.886 638.564 678.796C639.588 677.911 640.621 677.022 641.664 676.132C642.108 675.753 642.755 675.701 643.295 675.998C643.836 676.295 644.158 676.885 644.108 677.48C643.93 679.641 643.667 681.912 643.389 684.316C642.695 690.324 641.922 697.025 642.453 702.765C645.444 700.215 653.125 693.585 652.721 691.308C652.58 690.507 653.108 689.781 653.901 689.692C654.696 689.6 655.455 690.175 655.598 690.978C656.005 693.263 653.933 696.148 650.755 699.325L650.753 699.328Z" fill="#0F7C41" fill-opacity="0.4"/>
<path d="M647.972 666.315C647.821 666.466 647.63 666.582 647.405 666.649C645.456 667.229 643.682 668.429 642.408 670.015C641.987 670.536 641.223 670.674 640.596 670.32C639.967 669.968 639.649 669.234 639.84 668.573C642.475 659.375 641.218 657.132 640.941 656.775C639.617 655.08 638.824 655.645 638.489 655.885C637.33 656.713 636.958 658.513 637.228 658.892C637.8 659.494 637.813 660.409 637.235 660.951C636.668 661.489 635.741 661.43 635.168 660.827C634.229 659.839 633.981 658.317 634.492 656.651C634.99 655.023 636.356 653.013 638.556 652.715C639.714 652.559 641.456 652.839 643.201 655.075C644.579 656.84 644.777 660.091 643.793 664.962C644.624 664.493 645.501 664.116 646.411 663.846C647.167 663.621 648.007 664.064 648.282 664.84C648.478 665.388 648.339 665.953 647.975 666.317L647.972 666.315Z" fill="#0F7C41" fill-opacity="0.4"/>
<path d="M680.884 677.916C680.767 678.033 680.626 678.13 680.467 678.199C679.744 678.511 678.866 678.159 678.509 677.416C676.088 672.382 671.508 667.653 666.92 663.289C666.318 662.716 666.261 661.792 666.799 661.224C667.319 660.644 668.258 660.661 668.858 661.236C673.666 665.812 678.48 670.798 681.124 676.293C681.402 676.873 681.288 677.517 680.884 677.921L680.884 677.916Z" fill="#0F7C41" fill-opacity="0.4"/>
<path d="M681.416 666.017C681.236 666.198 681 666.33 680.727 666.384C674.43 667.641 668.91 672.679 666.174 675.579C665.621 676.167 664.714 676.142 664.112 675.569C663.51 674.997 663.453 674.072 663.99 673.505C666.935 670.382 672.943 664.924 679.981 663.522C680.762 663.365 681.56 663.881 681.766 664.672C681.897 665.185 681.751 665.688 681.419 666.02L681.416 666.017Z" fill="#0F7C41" fill-opacity="0.4"/>
<path d="M709.131 650.363C708.69 650.805 707.929 650.812 707.607 650.817C707.49 650.819 707.376 650.805 707.262 650.78C707.212 650.78 707.158 650.78 707.108 650.78C706.972 650.777 706.801 650.775 706.62 650.757C706.6 650.757 706.58 650.757 706.561 650.762L706.561 650.753C706.214 650.718 705.827 650.634 705.52 650.42C698.61 649.117 687.62 648.408 682.74 650.339C682.009 650.629 681.141 650.252 680.802 649.501C680.465 648.747 680.785 647.902 681.516 647.612C687.618 645.198 700.461 646.328 707.448 647.873C707.552 647.877 707.654 647.885 707.755 647.892C707.77 647.892 707.785 647.892 707.795 647.892C708.628 647.977 709.393 648.262 709.46 649.35C709.49 649.826 709.351 650.148 709.133 650.366L709.131 650.363Z" fill="#0F7C41" fill-opacity="0.4"/>
<path d="M690.475 662.644C690.123 662.996 689.585 663.137 689.05 662.969C688.267 662.721 687.796 661.898 687.992 661.127C689.154 656.609 689.692 651.546 690.215 646.651C690.438 644.549 690.671 642.378 690.949 640.306C691.055 639.515 691.789 639 692.589 639.156C693.387 639.314 693.953 640.083 693.846 640.873C693.573 642.906 693.355 644.963 693.122 647.144C692.589 652.138 692.039 657.303 690.825 662.022C690.763 662.267 690.639 662.476 690.475 662.639L690.475 662.644Z" fill="#0F7C41" fill-opacity="0.4"/>
<path d="M723.176 657.707C722.742 658.141 722.264 658.376 721.87 658.503C721.116 658.746 720.271 658.317 719.979 657.548C719.689 656.778 720.063 655.957 720.814 655.717C720.903 655.687 721.114 655.62 721.288 655.164C722.279 652.557 720.085 645.446 717.166 638.13C712.707 635.178 704.137 632.635 700.263 632.221C699.457 632.134 698.833 631.416 698.865 630.615C698.9 629.812 699.579 629.232 700.384 629.319C703.532 629.656 709.292 631.207 714.078 633.307C711.54 629.455 709.022 625.187 709.525 620.857C709.597 620.23 710.075 619.747 710.7 619.668C711.327 619.586 711.959 619.93 712.261 620.51C712.407 620.79 726.889 648.804 724.021 656.356C723.798 656.946 723.496 657.382 723.169 657.71L723.176 657.707Z" fill="#0F7C41" fill-opacity="0.4"/>
</g>
</g>
<defs>
<clipPath id="clip0_1_1752">
<rect width="1296.5" height="812" fill="white" transform="translate(0 -8)"/>
</clipPath>
<clipPath id="clip1_1_1752">
<rect width="332.428" height="64.22" fill="white" transform="translate(515 775.062) rotate(-45)"/>
</clipPath>
</defs>
</svg>
